<?xml version="1.0" encoding="utf-8"?>
<!-- Generator: Adobe Illustrator 16.0.0, SVG Export Plug-In . SVG Version: 6.00 Build 0)  -->
<!DOCTYPE svg PUBLIC "-//W3C//DTD SVG 1.1//EN" "http://www.w3.org/Graphics/SVG/1.1/DTD/svg11.dtd">
<svg version="1.1" id="Calque_1" xmlns="http://www.w3.org/2000/svg" xmlns:xlink="http://www.w3.org/1999/xlink" x="0px" y="0px"
	 width="1280px" height="350px" viewBox="0 0 1280 350" enable-background="new 0 0 1280 350" xml:space="preserve">
<radialGradient id="SVGID_1_" cx="294.3301" cy="-1133.3286" r="1306.9565" gradientTransform="matrix(0.4832 0 0 0.4549 177.1235 630.1584)" gradientUnits="userSpaceOnUse">
	<stop  offset="0.2883" style="stop-color:#488DCB"/>
	<stop  offset="1" style="stop-color:#71CFF5"/>
</radialGradient>
<path fill="url(#SVGID_1_)" d="M1279.804,300.176C905.911,112.109,0,349.618,0,349.618V-1.176h1279.804
	C1279.804-1.176,1279.804,123.977,1279.804,300.176z"/>
<g>
	
		<radialGradient id="SVGID_2_" cx="-927.709" cy="-30470.5938" r="999.0084" gradientTransform="matrix(0.1332 0 0 0.0155 1072.1099 785.1361)" gradientUnits="userSpaceOnUse">
		<stop  offset="0" style="stop-color:#186E2F"/>
		<stop  offset="0.058" style="stop-color:#317E46"/>
		<stop  offset="0.1959" style="stop-color:#67A076"/>
		<stop  offset="0.3353" style="stop-color:#96BDA0"/>
		<stop  offset="0.4733" style="stop-color:#BCD5C2"/>
		<stop  offset="0.6097" style="stop-color:#D9E7DD"/>
		<stop  offset="0.744" style="stop-color:#EEF4F0"/>
		<stop  offset="0.8753" style="stop-color:#FBFCFB"/>
		<stop  offset="1" style="stop-color:#FFFFFF"/>
	</radialGradient>
	<path fill="url(#SVGID_2_)" d="M1090.96,313.192c0,9.096-63.768,15.017-142.423,15.017c-78.661,0-142.422-5.921-142.422-15.017
		c0-9.097,63.761-13.545,142.422-13.545C1027.192,299.647,1090.96,304.096,1090.96,313.192z"/>
	<g>
		<g>
			<g>
				
					<linearGradient id="SVGID_3_" gradientUnits="userSpaceOnUse" x1="234.8867" y1="43.7656" x2="260.6564" y2="21.9444" gradientTransform="matrix(-0.9338 -0.5874 -0.448 0.8793 1209.0752 423.5972)">
					<stop  offset="0" style="stop-color:#B0CF00"/>
					<stop  offset="0.522" style="stop-color:#69B52E"/>
					<stop  offset="1" style="stop-color:#008839"/>
				</linearGradient>
				<path fill="url(#SVGID_3_)" d="M942.145,274.43c0,0,18.703,9.841,15.705,28.139c0,0,11.095,0.14,12.234,3.895
					c0,0-21.081-29.081-19.151-35.876L942.145,274.43z"/>
				<g>
					
						<linearGradient id="SVGID_4_" gradientUnits="userSpaceOnUse" x1="24.7119" y1="112.3613" x2="-60.6104" y2="40.9912" gradientTransform="matrix(-0.9997 -0.4179 -0.271 0.9715 851.5742 90.3184)">
						<stop  offset="0" style="stop-color:#B0CF00"/>
						<stop  offset="0.3252" style="stop-color:#69B52E"/>
						<stop  offset="0.7362" style="stop-color:#136D30"/>
					</linearGradient>
					<path fill="url(#SVGID_4_)" d="M839.683,38.898c0,0,0.037,0.383,0.153,1.115c-4.914,37.138,5.926,93.078,17.967,120.97
						c31.186,72.23,75.571,103.99,93.057,114.262c-0.203,0.397-0.327,0.627-0.327,0.627
						C731.965,269.82,839.683,38.898,839.683,38.898z"/>
					
						<linearGradient id="SVGID_5_" gradientUnits="userSpaceOnUse" x1="-76.5596" y1="20.1392" x2="-8.1773" y2="103.5781" gradientTransform="matrix(-0.9997 -0.4179 -0.271 0.9715 851.5742 90.3184)">
						<stop  offset="0" style="stop-color:#B0CF00"/>
						<stop  offset="0.6564" style="stop-color:#69B52E"/>
						<stop  offset="1" style="stop-color:#136D30"/>
					</linearGradient>
					<path fill="url(#SVGID_5_)" d="M857.803,160.983c-12.041-27.892-22.881-83.832-17.967-120.97
						c1.438,8.612-5.766,59.853,77.899,115.094c69.091,45.606,36.671,113.338,33.124,120.138
						C933.374,264.974,888.988,233.214,857.803,160.983z"/>
				</g>
			</g>
			<g>
				<g>
					<g>
						<path fill="#FFFFFF" d="M823.738,178.751c-0.016-0.173,8.646,17.104,26.593,32.17c17.496,15.392,42.285,27.561,58.747,31.995
							c0.087,0.174-24.914-3.925-47.149-19.852c-11.117-7.742-21.345-21.216-27.898-29.405
							C827.37,185.533,824.083,179.113,823.738,178.751z"/>
					</g>
				</g>
				<g>
					<g>
						<path fill="#FFFFFF" d="M932.963,197.997c-0.148-0.048,6.164,10.855,7.294,25.192c1.516,14.312-2.301,30.395-6.147,40.113
							c0.054,0.147,10.566-14.525,10.679-31.5C945.727,214.75,933.466,198.232,932.963,197.997z"/>
					</g>
				</g>
				<g>
					<g>
						<path fill="#FFFFFF" d="M867.974,188.107c0.107,0-3.189-12.627-4.824-28.289c-1.732-15.618-0.93-34.415,4.607-44.673
							c-0.036-0.029-2.517,3.592-4.114,10.098c-1.684,6.456-2.66,10.407-2.205,19.703
							C862.275,163.583,867.827,187.487,867.974,188.107z"/>
					</g>
				</g>
				<g>
					<g>
						<path fill="#FFFFFF" d="M812.331,126.77c0.206-0.165,3.043,17.012,14.509,35.76c5.628,9.307,13.713,22.494,22.522,29.535
							c8.802,7.044,18.188,8.076,25.843,9.958c0.053,0.024-5.797-1.697-13.827-6.479c-8.028-4.686-18.022-12.729-26.04-22.714
							C818.638,152.9,812.653,127.351,812.331,126.77z"/>
					</g>
				</g>
				<g>
					<g>
						<path fill="#FFFFFF" d="M896.207,215.914c-0.104,0.091,9.708,0.672,13.7-8.287c4.2-8.612-1.241-41.85-2.125-49.693
							c0.018-0.075,4.679,29.271,1.27,40.2c-1.6,5.452-4.362,10.406-7.226,13.394C898.95,214.564,896.321,215.766,896.207,215.914z"
							/>
					</g>
				</g>
				<g>
					<g>
						<path fill="#FFFFFF" stroke="#FFFFFF" stroke-width="0.1853" d="M839.617,39.07c0.103,0.013-1.575,10.814-1.91,28.863
							c-0.309,17.975,1.059,43.504,8.663,71.413c7.391,27.842,21.789,57.636,41.075,81.725c19.117,24.14,42.23,42.793,61.921,52.405
							c0.113,0.062-14.804-7.93-33.656-25.391c-18.891-17.176-40.864-44.66-54.77-76.023
							c-14.344-31.227-20.328-64.896-21.654-89.881C837.88,57.078,839.818,40.272,839.617,39.07z"/>
					</g>
				</g>
			</g>
		</g>
		<g>
			<g>
				
					<linearGradient id="SVGID_6_" gradientUnits="userSpaceOnUse" x1="473.7397" y1="244.0283" x2="499.3222" y2="222.3657" gradientTransform="matrix(0.7478 -0.3782 0.2767 0.6967 534.2373 327.0786)">
					<stop  offset="0" style="stop-color:#B0CF00"/>
					<stop  offset="0.522" style="stop-color:#69B52E"/>
					<stop  offset="1" style="stop-color:#008839"/>
				</linearGradient>
				<path fill="url(#SVGID_6_)" d="M979.671,282.313c0,0-11.604,9.453-10.505,23.544c0,0-11.578-4.253-12.678-1.512
					c0,0,17.803-20.337,16.778-25.64L979.671,282.313z"/>
				<g>
					
						<linearGradient id="SVGID_7_" gradientUnits="userSpaceOnUse" x1="294.8325" y1="266.9863" x2="209.4211" y2="195.5417" gradientTransform="matrix(0.7856 -0.2454 0.1363 0.7539 827.6484 99.7673)">
						<stop  offset="0" style="stop-color:#B0CF00"/>
						<stop  offset="0.3252" style="stop-color:#69B52E"/>
						<stop  offset="0.7362" style="stop-color:#136D30"/>
					</linearGradient>
					<path fill="url(#SVGID_7_)" d="M1072.208,112.195c0,0-0.056,0.284-0.188,0.832c1.345,28.476-10.434,69.921-21.311,90.073
						c-28.206,52.196-63.794,72.74-77.684,79.149c0.126,0.313,0.212,0.485,0.212,0.485
						C1138.94,295.278,1072.208,112.195,1072.208,112.195z"/>
					
						<linearGradient id="SVGID_8_" gradientUnits="userSpaceOnUse" x1="192.8564" y1="174.145" x2="261.8014" y2="258.2705" gradientTransform="matrix(0.7856 -0.2454 0.1363 0.7539 827.6484 99.7673)">
						<stop  offset="0" style="stop-color:#B0CF00"/>
						<stop  offset="0.6564" style="stop-color:#69B52E"/>
						<stop  offset="1" style="stop-color:#136D30"/>
					</linearGradient>
					<path fill="url(#SVGID_8_)" d="M1050.709,203.1c10.877-20.152,22.655-61.597,21.311-90.073
						c-1.646,6.403,0.537,45.726-66.271,80.954c-55.167,29.069-34.974,82.844-32.724,88.269
						C986.915,275.84,1022.503,255.296,1050.709,203.1z"/>
				</g>
			</g>
			<g>
				<g>
					<g>
						<path fill="#FFFFFF" d="M1075.334,219.216c0.029-0.142-7.631,12.254-22.168,22.252c-14.221,10.26-33.745,17.522-46.48,19.588
							c-0.069,0.141,19.104-1.023,36.928-11.323c8.918-4.981,17.508-14.363,22.985-20.05
							C1072.145,224.057,1075.059,219.462,1075.334,219.216z"/>
					</g>
				</g>
				<g>
					<g>
						<path fill="#FFFFFF" d="M991.482,225.223c0.131-0.037-5.34,7.721-7.108,18.49c-2.067,10.693-0.21,23.17,2.087,30.804
							c-0.051,0.099-7.061-11.806-6.069-24.646C980.76,236.893,991.101,225.359,991.482,225.223z"/>
					</g>
				</g>
				<g>
					<g>
						<path fill="#FFFFFF" d="M1041.271,222.828c-0.074,0,3.224-9.305,5.464-21.028c2.307-11.658,2.903-25.944-0.627-34.139
							c0.024-0.012,1.668,2.915,2.46,7.967c0.866,5.008,1.356,8.069,0.412,15.057
							C1047.158,204.726,1041.421,222.376,1041.271,222.828z"/>
					</g>
				</g>
				<g>
					<g>
						<path fill="#FFFFFF" d="M1087.276,180.784c-0.141-0.14-3.39,12.629-13.257,25.912c-4.854,6.604-11.806,15.934-18.919,20.572
							c-7.105,4.646-14.267,4.678-20.173,5.514c-0.045,0.013,4.485-0.836,10.857-3.815c6.377-2.912,14.44-8.223,21.144-15.147
							C1080.848,200.055,1086.999,181.205,1087.276,180.784z"/>
					</g>
				</g>
				<g>
					<g>
						<path fill="#FFFFFF" d="M1018.159,241.654c0.067,0.07-7.399-0.26-9.838-7.338c-2.624-6.851,3.605-31.563,4.78-37.422
							c-0.016-0.065-5.414,21.761-3.535,30.295c0.865,4.255,2.64,8.218,4.616,10.706
							C1016.149,240.399,1018.078,241.517,1018.159,241.654z"/>
					</g>
				</g>
				<g>
					<g>
						<path fill="#FFFFFF" stroke="#FFFFFF" stroke-width="0.1408" d="M1072.244,112.334c-0.081,0,0.495,8.3-0.4,21.979
							c-0.906,13.608-3.575,32.818-11.106,53.323c-7.375,20.484-20.156,41.888-36.295,58.589
							c-16.002,16.758-34.658,29.074-50.167,34.798c-0.095,0.036,11.701-4.848,27.069-16.579
							c15.377-11.51,33.752-30.571,46.271-53.199c12.852-22.506,19.53-47.488,22.125-66.286
							C1072.409,126.075,1072.02,113.224,1072.244,112.334z"/>
					</g>
				</g>
			</g>
		</g>
	</g>
</g>
</svg>
